<mxfile host="app.diagrams.net" agent="Mozilla/5.0 (Windows NT 10.0; Win64; x64) AppleWebKit/537.36 (KHTML, like Gecko) Chrome/137.0.0.0 Safari/537.36" version="26.2.14">
  <diagram name="Page-1" id="PLRACJstkrYDBVGS3A4X">
    <mxGraphModel dx="872" dy="473" grid="1" gridSize="10" guides="1" tooltips="1" connect="1" arrows="1" fold="1" page="1" pageScale="1" pageWidth="850" pageHeight="1100" math="0" shadow="0">
      <root>
        <mxCell id="0" />
        <mxCell id="1" parent="0" />
        <mxCell id="84j811hHUZIT4I43hmBU-1" value="Users" style="rounded=0;whiteSpace=wrap;html=1;" vertex="1" parent="1">
          <mxGeometry x="130" y="40" width="120" height="60" as="geometry" />
        </mxCell>
        <mxCell id="84j811hHUZIT4I43hmBU-2" value="Ecom" style="ellipse;whiteSpace=wrap;html=1;aspect=fixed;" vertex="1" parent="1">
          <mxGeometry x="330" y="30" width="80" height="80" as="geometry" />
        </mxCell>
        <mxCell id="84j811hHUZIT4I43hmBU-3" value="Ecom_db" style="shape=process;whiteSpace=wrap;html=1;backgroundOutline=1;" vertex="1" parent="1">
          <mxGeometry x="510" y="40" width="120" height="60" as="geometry" />
        </mxCell>
        <mxCell id="84j811hHUZIT4I43hmBU-4" value="" style="endArrow=classic;html=1;rounded=0;entryX=0;entryY=0.5;entryDx=0;entryDy=0;" edge="1" parent="1" target="84j811hHUZIT4I43hmBU-2">
          <mxGeometry width="50" height="50" relative="1" as="geometry">
            <mxPoint x="250" y="70" as="sourcePoint" />
            <mxPoint x="300" y="20" as="targetPoint" />
          </mxGeometry>
        </mxCell>
        <mxCell id="84j811hHUZIT4I43hmBU-5" value="" style="endArrow=classic;html=1;rounded=0;entryX=0;entryY=0.5;entryDx=0;entryDy=0;" edge="1" parent="1" target="84j811hHUZIT4I43hmBU-3">
          <mxGeometry width="50" height="50" relative="1" as="geometry">
            <mxPoint x="410" y="70" as="sourcePoint" />
            <mxPoint x="460" y="20" as="targetPoint" />
          </mxGeometry>
        </mxCell>
        <mxCell id="84j811hHUZIT4I43hmBU-6" value="0&#39;level DFD for Ecom&lt;div&gt;&lt;br&gt;&lt;/div&gt;" style="text;html=1;align=center;verticalAlign=middle;whiteSpace=wrap;rounded=0;" vertex="1" parent="1">
          <mxGeometry x="250" y="130" width="270" height="30" as="geometry" />
        </mxCell>
        <mxCell id="84j811hHUZIT4I43hmBU-7" value="Users" style="rounded=0;whiteSpace=wrap;html=1;" vertex="1" parent="1">
          <mxGeometry x="110" y="200" width="120" height="60" as="geometry" />
        </mxCell>
        <mxCell id="84j811hHUZIT4I43hmBU-8" value="Register/Login" style="ellipse;whiteSpace=wrap;html=1;aspect=fixed;" vertex="1" parent="1">
          <mxGeometry x="310" y="190" width="80" height="80" as="geometry" />
        </mxCell>
        <mxCell id="84j811hHUZIT4I43hmBU-9" value="User_tbl" style="shape=process;whiteSpace=wrap;html=1;backgroundOutline=1;" vertex="1" parent="1">
          <mxGeometry x="490" y="200" width="120" height="60" as="geometry" />
        </mxCell>
        <mxCell id="84j811hHUZIT4I43hmBU-10" value="" style="endArrow=classic;html=1;rounded=0;entryX=0;entryY=0.5;entryDx=0;entryDy=0;" edge="1" parent="1" target="84j811hHUZIT4I43hmBU-8">
          <mxGeometry width="50" height="50" relative="1" as="geometry">
            <mxPoint x="230" y="230" as="sourcePoint" />
            <mxPoint x="280" y="180" as="targetPoint" />
          </mxGeometry>
        </mxCell>
        <mxCell id="84j811hHUZIT4I43hmBU-11" value="" style="endArrow=classic;html=1;rounded=0;entryX=0;entryY=0.5;entryDx=0;entryDy=0;" edge="1" parent="1" target="84j811hHUZIT4I43hmBU-9">
          <mxGeometry width="50" height="50" relative="1" as="geometry">
            <mxPoint x="390" y="230" as="sourcePoint" />
            <mxPoint x="440" y="180" as="targetPoint" />
          </mxGeometry>
        </mxCell>
        <mxCell id="84j811hHUZIT4I43hmBU-12" value="Users" style="rounded=0;whiteSpace=wrap;html=1;" vertex="1" parent="1">
          <mxGeometry x="100" y="300" width="120" height="60" as="geometry" />
        </mxCell>
        <mxCell id="84j811hHUZIT4I43hmBU-13" value="Product View" style="ellipse;whiteSpace=wrap;html=1;aspect=fixed;" vertex="1" parent="1">
          <mxGeometry x="310" y="290" width="80" height="80" as="geometry" />
        </mxCell>
        <mxCell id="84j811hHUZIT4I43hmBU-14" value="Product_tbl" style="shape=process;whiteSpace=wrap;html=1;backgroundOutline=1;" vertex="1" parent="1">
          <mxGeometry x="480" y="300" width="120" height="60" as="geometry" />
        </mxCell>
        <mxCell id="84j811hHUZIT4I43hmBU-15" value="" style="endArrow=classic;html=1;rounded=0;exitX=0;exitY=0.5;exitDx=0;exitDy=0;entryX=1;entryY=0.5;entryDx=0;entryDy=0;" edge="1" parent="1" target="84j811hHUZIT4I43hmBU-12" source="84j811hHUZIT4I43hmBU-13">
          <mxGeometry width="50" height="50" relative="1" as="geometry">
            <mxPoint x="220" y="330" as="sourcePoint" />
            <mxPoint x="190" y="290" as="targetPoint" />
          </mxGeometry>
        </mxCell>
        <mxCell id="84j811hHUZIT4I43hmBU-16" value="" style="endArrow=classic;html=1;rounded=0;entryX=0.95;entryY=0.425;entryDx=0;entryDy=0;entryPerimeter=0;" edge="1" parent="1" target="84j811hHUZIT4I43hmBU-13" source="84j811hHUZIT4I43hmBU-14">
          <mxGeometry width="50" height="50" relative="1" as="geometry">
            <mxPoint x="380" y="330" as="sourcePoint" />
            <mxPoint x="430" y="280" as="targetPoint" />
          </mxGeometry>
        </mxCell>
        <mxCell id="84j811hHUZIT4I43hmBU-17" value="Users" style="rounded=0;whiteSpace=wrap;html=1;" vertex="1" parent="1">
          <mxGeometry x="100" y="390" width="120" height="60" as="geometry" />
        </mxCell>
        <mxCell id="84j811hHUZIT4I43hmBU-18" value="AddtoCart" style="ellipse;whiteSpace=wrap;html=1;aspect=fixed;" vertex="1" parent="1">
          <mxGeometry x="300" y="380" width="80" height="80" as="geometry" />
        </mxCell>
        <mxCell id="84j811hHUZIT4I43hmBU-19" value="cart_tbl" style="shape=process;whiteSpace=wrap;html=1;backgroundOutline=1;" vertex="1" parent="1">
          <mxGeometry x="480" y="390" width="120" height="60" as="geometry" />
        </mxCell>
        <mxCell id="84j811hHUZIT4I43hmBU-20" value="" style="endArrow=classic;html=1;rounded=0;entryX=0;entryY=0.5;entryDx=0;entryDy=0;" edge="1" parent="1" target="84j811hHUZIT4I43hmBU-18">
          <mxGeometry width="50" height="50" relative="1" as="geometry">
            <mxPoint x="220" y="420" as="sourcePoint" />
            <mxPoint x="270" y="370" as="targetPoint" />
          </mxGeometry>
        </mxCell>
        <mxCell id="84j811hHUZIT4I43hmBU-21" value="" style="endArrow=classic;html=1;rounded=0;entryX=0;entryY=0.5;entryDx=0;entryDy=0;" edge="1" parent="1" target="84j811hHUZIT4I43hmBU-19">
          <mxGeometry width="50" height="50" relative="1" as="geometry">
            <mxPoint x="380" y="420" as="sourcePoint" />
            <mxPoint x="430" y="370" as="targetPoint" />
          </mxGeometry>
        </mxCell>
        <mxCell id="84j811hHUZIT4I43hmBU-22" value="Users" style="rounded=0;whiteSpace=wrap;html=1;" vertex="1" parent="1">
          <mxGeometry x="100" y="480" width="120" height="60" as="geometry" />
        </mxCell>
        <mxCell id="84j811hHUZIT4I43hmBU-23" value="Order" style="ellipse;whiteSpace=wrap;html=1;aspect=fixed;" vertex="1" parent="1">
          <mxGeometry x="300" y="470" width="80" height="80" as="geometry" />
        </mxCell>
        <mxCell id="84j811hHUZIT4I43hmBU-24" value="Order" style="shape=process;whiteSpace=wrap;html=1;backgroundOutline=1;" vertex="1" parent="1">
          <mxGeometry x="480" y="480" width="120" height="60" as="geometry" />
        </mxCell>
        <mxCell id="84j811hHUZIT4I43hmBU-25" value="" style="endArrow=classic;html=1;rounded=0;entryX=0;entryY=0.5;entryDx=0;entryDy=0;" edge="1" parent="1" target="84j811hHUZIT4I43hmBU-23">
          <mxGeometry width="50" height="50" relative="1" as="geometry">
            <mxPoint x="220" y="510" as="sourcePoint" />
            <mxPoint x="270" y="460" as="targetPoint" />
          </mxGeometry>
        </mxCell>
        <mxCell id="84j811hHUZIT4I43hmBU-26" value="" style="endArrow=classic;html=1;rounded=0;entryX=0;entryY=0.5;entryDx=0;entryDy=0;" edge="1" parent="1" target="84j811hHUZIT4I43hmBU-24">
          <mxGeometry width="50" height="50" relative="1" as="geometry">
            <mxPoint x="380" y="510" as="sourcePoint" />
            <mxPoint x="430" y="460" as="targetPoint" />
          </mxGeometry>
        </mxCell>
        <mxCell id="84j811hHUZIT4I43hmBU-31" value="Users" style="rounded=0;whiteSpace=wrap;html=1;" vertex="1" parent="1">
          <mxGeometry x="100" y="580" width="120" height="60" as="geometry" />
        </mxCell>
        <mxCell id="84j811hHUZIT4I43hmBU-32" value="payment" style="ellipse;whiteSpace=wrap;html=1;aspect=fixed;" vertex="1" parent="1">
          <mxGeometry x="300" y="570" width="80" height="80" as="geometry" />
        </mxCell>
        <mxCell id="84j811hHUZIT4I43hmBU-33" value="payment" style="shape=process;whiteSpace=wrap;html=1;backgroundOutline=1;" vertex="1" parent="1">
          <mxGeometry x="480" y="580" width="120" height="60" as="geometry" />
        </mxCell>
        <mxCell id="84j811hHUZIT4I43hmBU-34" value="" style="endArrow=classic;html=1;rounded=0;entryX=0;entryY=0.5;entryDx=0;entryDy=0;" edge="1" parent="1" target="84j811hHUZIT4I43hmBU-32">
          <mxGeometry width="50" height="50" relative="1" as="geometry">
            <mxPoint x="220" y="610" as="sourcePoint" />
            <mxPoint x="270" y="560" as="targetPoint" />
          </mxGeometry>
        </mxCell>
        <mxCell id="84j811hHUZIT4I43hmBU-35" value="" style="endArrow=classic;html=1;rounded=0;entryX=0;entryY=0.5;entryDx=0;entryDy=0;" edge="1" parent="1" target="84j811hHUZIT4I43hmBU-33">
          <mxGeometry width="50" height="50" relative="1" as="geometry">
            <mxPoint x="380" y="610" as="sourcePoint" />
            <mxPoint x="430" y="560" as="targetPoint" />
          </mxGeometry>
        </mxCell>
        <mxCell id="84j811hHUZIT4I43hmBU-36" value="Admin" style="rounded=0;whiteSpace=wrap;html=1;" vertex="1" parent="1">
          <mxGeometry x="100" y="710" width="120" height="60" as="geometry" />
        </mxCell>
        <mxCell id="84j811hHUZIT4I43hmBU-37" value="Manage Product" style="ellipse;whiteSpace=wrap;html=1;aspect=fixed;" vertex="1" parent="1">
          <mxGeometry x="300" y="700" width="80" height="80" as="geometry" />
        </mxCell>
        <mxCell id="84j811hHUZIT4I43hmBU-38" value="product&lt;span style=&quot;color: rgba(0, 0, 0, 0); font-family: monospace; font-size: 0px; text-align: start; text-wrap-mode: nowrap;&quot;&gt;%3CmxGraphModel%3E%3Croot%3E%3CmxCell%20id%3D%220%22%2F%3E%3CmxCell%20id%3D%221%22%20parent%3D%220%22%2F%3E%3CmxCell%20id%3D%222%22%20value%3D%22Users%22%20style%3D%22rounded%3D0%3BwhiteSpace%3Dwrap%3Bhtml%3D1%3B%22%20vertex%3D%221%22%20parent%3D%221%22%3E%3CmxGeometry%20x%3D%22100%22%20y%3D%22580%22%20width%3D%22120%22%20height%3D%2260%22%20as%3D%22geometry%22%2F%3E%3C%2FmxCell%3E%3CmxCell%20id%3D%223%22%20value%3D%22payment%22%20style%3D%22ellipse%3BwhiteSpace%3Dwrap%3Bhtml%3D1%3Baspect%3Dfixed%3B%22%20vertex%3D%221%22%20parent%3D%221%22%3E%3CmxGeometry%20x%3D%22300%22%20y%3D%22570%22%20width%3D%2280%22%20height%3D%2280%22%20as%3D%22geometry%22%2F%3E%3C%2FmxCell%3E%3CmxCell%20id%3D%224%22%20value%3D%22payment%22%20style%3D%22shape%3Dprocess%3BwhiteSpace%3Dwrap%3Bhtml%3D1%3BbackgroundOutline%3D1%3B%22%20vertex%3D%221%22%20parent%3D%221%22%3E%3CmxGeometry%20x%3D%22480%22%20y%3D%22580%22%20width%3D%22120%22%20height%3D%2260%22%20as%3D%22geometry%22%2F%3E%3C%2FmxCell%3E%3CmxCell%20id%3D%225%22%20value%3D%22%22%20style%3D%22endArrow%3Dclassic%3Bhtml%3D1%3Brounded%3D0%3BentryX%3D0%3BentryY%3D0.5%3BentryDx%3D0%3BentryDy%3D0%3B%22%20edge%3D%221%22%20target%3D%223%22%20parent%3D%221%22%3E%3CmxGeometry%20width%3D%2250%22%20height%3D%2250%22%20relative%3D%221%22%20as%3D%22geometry%22%3E%3CmxPoint%20x%3D%22220%22%20y%3D%22610%22%20as%3D%22sourcePoint%22%2F%3E%3CmxPoint%20x%3D%22270%22%20y%3D%22560%22%20as%3D%22targetPoint%22%2F%3E%3C%2FmxGeometry%3E%3C%2FmxCell%3E%3CmxCell%20id%3D%226%22%20value%3D%22%22%20style%3D%22endArrow%3Dclassic%3Bhtml%3D1%3Brounded%3D0%3BentryX%3D0%3BentryY%3D0.5%3BentryDx%3D0%3BentryDy%3D0%3B%22%20edge%3D%221%22%20target%3D%224%22%20parent%3D%221%22%3E%3CmxGeometry%20width%3D%2250%22%20height%3D%2250%22%20relative%3D%221%22%20as%3D%22geometry%22%3E%3CmxPoint%20x%3D%22380%22%20y%3D%22610%22%20as%3D%22sourcePoint%22%2F%3E%3CmxPoint%20x%3D%22430%22%20y%3D%22560%22%20as%3D%22targetPoint%22%2F%3E%3C%2FmxGeometry%3E%3C%2FmxCell%3E%3C%2Froot%3E%3C%2FmxGraphModel%3E&lt;/span&gt;" style="shape=process;whiteSpace=wrap;html=1;backgroundOutline=1;" vertex="1" parent="1">
          <mxGeometry x="480" y="710" width="120" height="60" as="geometry" />
        </mxCell>
        <mxCell id="84j811hHUZIT4I43hmBU-39" value="" style="endArrow=classic;html=1;rounded=0;entryX=0;entryY=0.5;entryDx=0;entryDy=0;" edge="1" parent="1" target="84j811hHUZIT4I43hmBU-37">
          <mxGeometry width="50" height="50" relative="1" as="geometry">
            <mxPoint x="220" y="740" as="sourcePoint" />
            <mxPoint x="270" y="690" as="targetPoint" />
          </mxGeometry>
        </mxCell>
        <mxCell id="84j811hHUZIT4I43hmBU-40" value="" style="endArrow=classic;html=1;rounded=0;entryX=0;entryY=0.5;entryDx=0;entryDy=0;" edge="1" parent="1" target="84j811hHUZIT4I43hmBU-38">
          <mxGeometry width="50" height="50" relative="1" as="geometry">
            <mxPoint x="380" y="740" as="sourcePoint" />
            <mxPoint x="430" y="690" as="targetPoint" />
          </mxGeometry>
        </mxCell>
        <mxCell id="84j811hHUZIT4I43hmBU-41" value="Admin" style="rounded=0;whiteSpace=wrap;html=1;" vertex="1" parent="1">
          <mxGeometry x="100" y="820" width="120" height="60" as="geometry" />
        </mxCell>
        <mxCell id="84j811hHUZIT4I43hmBU-42" value="Manage User" style="ellipse;whiteSpace=wrap;html=1;aspect=fixed;" vertex="1" parent="1">
          <mxGeometry x="300" y="810" width="80" height="80" as="geometry" />
        </mxCell>
        <mxCell id="84j811hHUZIT4I43hmBU-43" value="User" style="shape=process;whiteSpace=wrap;html=1;backgroundOutline=1;" vertex="1" parent="1">
          <mxGeometry x="480" y="820" width="120" height="60" as="geometry" />
        </mxCell>
        <mxCell id="84j811hHUZIT4I43hmBU-44" value="" style="endArrow=classic;html=1;rounded=0;entryX=0;entryY=0.5;entryDx=0;entryDy=0;" edge="1" parent="1" target="84j811hHUZIT4I43hmBU-42">
          <mxGeometry width="50" height="50" relative="1" as="geometry">
            <mxPoint x="220" y="850" as="sourcePoint" />
            <mxPoint x="270" y="800" as="targetPoint" />
          </mxGeometry>
        </mxCell>
        <mxCell id="84j811hHUZIT4I43hmBU-45" value="" style="endArrow=classic;html=1;rounded=0;entryX=0;entryY=0.5;entryDx=0;entryDy=0;" edge="1" parent="1" target="84j811hHUZIT4I43hmBU-43">
          <mxGeometry width="50" height="50" relative="1" as="geometry">
            <mxPoint x="380" y="850" as="sourcePoint" />
            <mxPoint x="430" y="800" as="targetPoint" />
          </mxGeometry>
        </mxCell>
        <mxCell id="84j811hHUZIT4I43hmBU-46" value="Admin" style="rounded=0;whiteSpace=wrap;html=1;" vertex="1" parent="1">
          <mxGeometry x="100" y="900" width="120" height="60" as="geometry" />
        </mxCell>
        <mxCell id="84j811hHUZIT4I43hmBU-47" value="Manage order" style="ellipse;whiteSpace=wrap;html=1;aspect=fixed;" vertex="1" parent="1">
          <mxGeometry x="300" y="890" width="80" height="80" as="geometry" />
        </mxCell>
        <mxCell id="84j811hHUZIT4I43hmBU-48" value="order" style="shape=process;whiteSpace=wrap;html=1;backgroundOutline=1;" vertex="1" parent="1">
          <mxGeometry x="480" y="900" width="120" height="60" as="geometry" />
        </mxCell>
        <mxCell id="84j811hHUZIT4I43hmBU-49" value="" style="endArrow=classic;html=1;rounded=0;entryX=0;entryY=0.5;entryDx=0;entryDy=0;" edge="1" parent="1" target="84j811hHUZIT4I43hmBU-47">
          <mxGeometry width="50" height="50" relative="1" as="geometry">
            <mxPoint x="220" y="930" as="sourcePoint" />
            <mxPoint x="270" y="880" as="targetPoint" />
          </mxGeometry>
        </mxCell>
        <mxCell id="84j811hHUZIT4I43hmBU-50" value="" style="endArrow=classic;html=1;rounded=0;entryX=0;entryY=0.5;entryDx=0;entryDy=0;" edge="1" parent="1" target="84j811hHUZIT4I43hmBU-48">
          <mxGeometry width="50" height="50" relative="1" as="geometry">
            <mxPoint x="380" y="930" as="sourcePoint" />
            <mxPoint x="430" y="880" as="targetPoint" />
          </mxGeometry>
        </mxCell>
        <mxCell id="84j811hHUZIT4I43hmBU-56" value="Admin" style="rounded=0;whiteSpace=wrap;html=1;" vertex="1" parent="1">
          <mxGeometry x="90" y="1000" width="120" height="60" as="geometry" />
        </mxCell>
        <mxCell id="84j811hHUZIT4I43hmBU-57" value="Manage payment" style="ellipse;whiteSpace=wrap;html=1;aspect=fixed;" vertex="1" parent="1">
          <mxGeometry x="290" y="990" width="80" height="80" as="geometry" />
        </mxCell>
        <mxCell id="84j811hHUZIT4I43hmBU-58" value="payment" style="shape=process;whiteSpace=wrap;html=1;backgroundOutline=1;" vertex="1" parent="1">
          <mxGeometry x="470" y="1000" width="120" height="60" as="geometry" />
        </mxCell>
        <mxCell id="84j811hHUZIT4I43hmBU-59" value="" style="endArrow=classic;html=1;rounded=0;entryX=0;entryY=0.5;entryDx=0;entryDy=0;" edge="1" parent="1" target="84j811hHUZIT4I43hmBU-57">
          <mxGeometry width="50" height="50" relative="1" as="geometry">
            <mxPoint x="210" y="1030" as="sourcePoint" />
            <mxPoint x="260" y="980" as="targetPoint" />
          </mxGeometry>
        </mxCell>
        <mxCell id="84j811hHUZIT4I43hmBU-60" value="" style="endArrow=classic;html=1;rounded=0;entryX=0;entryY=0.5;entryDx=0;entryDy=0;" edge="1" parent="1" target="84j811hHUZIT4I43hmBU-58">
          <mxGeometry width="50" height="50" relative="1" as="geometry">
            <mxPoint x="370" y="1030" as="sourcePoint" />
            <mxPoint x="420" y="980" as="targetPoint" />
          </mxGeometry>
        </mxCell>
        <mxCell id="84j811hHUZIT4I43hmBU-62" value="" style="edgeStyle=orthogonalEdgeStyle;rounded=0;orthogonalLoop=1;jettySize=auto;html=1;" edge="1" parent="1" source="84j811hHUZIT4I43hmBU-61" target="84j811hHUZIT4I43hmBU-57">
          <mxGeometry relative="1" as="geometry" />
        </mxCell>
        <mxCell id="84j811hHUZIT4I43hmBU-61" value="Text" style="text;html=1;align=center;verticalAlign=middle;whiteSpace=wrap;rounded=0;" vertex="1" parent="1">
          <mxGeometry x="250" y="1070" width="60" height="30" as="geometry" />
        </mxCell>
        <mxCell id="84j811hHUZIT4I43hmBU-67" value="Start" style="ellipse;whiteSpace=wrap;html=1;aspect=fixed;" vertex="1" parent="1">
          <mxGeometry x="300" y="1090" width="80" height="80" as="geometry" />
        </mxCell>
        <mxCell id="84j811hHUZIT4I43hmBU-68" value="Enter num1,num2" style="shape=parallelogram;perimeter=parallelogramPerimeter;whiteSpace=wrap;html=1;fixedSize=1;" vertex="1" parent="1">
          <mxGeometry x="280" y="1200" width="120" height="60" as="geometry" />
        </mxCell>
        <mxCell id="84j811hHUZIT4I43hmBU-69" value="Num3=num1+num2" style="rounded=0;whiteSpace=wrap;html=1;" vertex="1" parent="1">
          <mxGeometry x="270" y="1310" width="120" height="60" as="geometry" />
        </mxCell>
        <mxCell id="84j811hHUZIT4I43hmBU-70" value="Output:&lt;div&gt;num3&lt;/div&gt;" style="shape=parallelogram;perimeter=parallelogramPerimeter;whiteSpace=wrap;html=1;fixedSize=1;" vertex="1" parent="1">
          <mxGeometry x="260" y="1410" width="120" height="60" as="geometry" />
        </mxCell>
        <mxCell id="84j811hHUZIT4I43hmBU-71" value="End" style="ellipse;whiteSpace=wrap;html=1;aspect=fixed;" vertex="1" parent="1">
          <mxGeometry x="270" y="1500" width="80" height="80" as="geometry" />
        </mxCell>
        <mxCell id="84j811hHUZIT4I43hmBU-72" value="" style="endArrow=classic;html=1;rounded=0;entryX=0.5;entryY=0;entryDx=0;entryDy=0;" edge="1" parent="1" target="84j811hHUZIT4I43hmBU-68">
          <mxGeometry width="50" height="50" relative="1" as="geometry">
            <mxPoint x="340" y="1170" as="sourcePoint" />
            <mxPoint x="390" y="1120" as="targetPoint" />
          </mxGeometry>
        </mxCell>
        <mxCell id="84j811hHUZIT4I43hmBU-73" value="Sequence Flow chart" style="text;html=1;align=center;verticalAlign=middle;resizable=0;points=[];autosize=1;strokeColor=none;fillColor=none;" vertex="1" parent="1">
          <mxGeometry x="130" y="1608" width="140" height="30" as="geometry" />
        </mxCell>
        <mxCell id="84j811hHUZIT4I43hmBU-74" value="Start" style="ellipse;whiteSpace=wrap;html=1;aspect=fixed;" vertex="1" parent="1">
          <mxGeometry x="630" y="1090" width="80" height="80" as="geometry" />
        </mxCell>
        <mxCell id="84j811hHUZIT4I43hmBU-75" value="Enter CP,SP" style="shape=parallelogram;perimeter=parallelogramPerimeter;whiteSpace=wrap;html=1;fixedSize=1;" vertex="1" parent="1">
          <mxGeometry x="610" y="1200" width="120" height="60" as="geometry" />
        </mxCell>
        <mxCell id="84j811hHUZIT4I43hmBU-76" value="SP&amp;gt;CP" style="rhombus;whiteSpace=wrap;html=1;" vertex="1" parent="1">
          <mxGeometry x="630" y="1290" width="80" height="80" as="geometry" />
        </mxCell>
        <mxCell id="84j811hHUZIT4I43hmBU-77" value="Profit" style="rounded=0;whiteSpace=wrap;html=1;" vertex="1" parent="1">
          <mxGeometry x="490" y="1400" width="120" height="60" as="geometry" />
        </mxCell>
        <mxCell id="84j811hHUZIT4I43hmBU-78" value="Loss" style="rounded=0;whiteSpace=wrap;html=1;" vertex="1" parent="1">
          <mxGeometry x="710" y="1400" width="120" height="60" as="geometry" />
        </mxCell>
        <mxCell id="84j811hHUZIT4I43hmBU-79" value="" style="endArrow=classic;html=1;rounded=0;entryX=0.425;entryY=0.025;entryDx=0;entryDy=0;entryPerimeter=0;" edge="1" parent="1" target="84j811hHUZIT4I43hmBU-76">
          <mxGeometry width="50" height="50" relative="1" as="geometry">
            <mxPoint x="660" y="1260" as="sourcePoint" />
            <mxPoint x="710" y="1210" as="targetPoint" />
          </mxGeometry>
        </mxCell>
        <mxCell id="84j811hHUZIT4I43hmBU-80" value="" style="endArrow=classic;html=1;rounded=0;entryX=0.25;entryY=0;entryDx=0;entryDy=0;exitX=0;exitY=0.5;exitDx=0;exitDy=0;" edge="1" parent="1" source="84j811hHUZIT4I43hmBU-76" target="84j811hHUZIT4I43hmBU-77">
          <mxGeometry width="50" height="50" relative="1" as="geometry">
            <mxPoint x="490" y="1320" as="sourcePoint" />
            <mxPoint x="600" y="1250" as="targetPoint" />
            <Array as="points">
              <mxPoint x="520" y="1320" />
            </Array>
          </mxGeometry>
        </mxCell>
        <mxCell id="84j811hHUZIT4I43hmBU-81" value="" style="endArrow=classic;html=1;rounded=0;entryX=0.408;entryY=0.083;entryDx=0;entryDy=0;entryPerimeter=0;" edge="1" parent="1" target="84j811hHUZIT4I43hmBU-78">
          <mxGeometry width="50" height="50" relative="1" as="geometry">
            <mxPoint x="710" y="1330" as="sourcePoint" />
            <mxPoint x="764" y="1400" as="targetPoint" />
            <Array as="points">
              <mxPoint x="760" y="1330" />
            </Array>
          </mxGeometry>
        </mxCell>
        <mxCell id="84j811hHUZIT4I43hmBU-82" value="" style="endArrow=classic;html=1;rounded=0;entryX=0.5;entryY=0;entryDx=0;entryDy=0;" edge="1" parent="1" target="84j811hHUZIT4I43hmBU-75">
          <mxGeometry width="50" height="50" relative="1" as="geometry">
            <mxPoint x="670" y="1170" as="sourcePoint" />
            <mxPoint x="720" y="1120" as="targetPoint" />
          </mxGeometry>
        </mxCell>
        <mxCell id="84j811hHUZIT4I43hmBU-84" value="END" style="ellipse;whiteSpace=wrap;html=1;aspect=fixed;" vertex="1" parent="1">
          <mxGeometry x="620" y="1480" width="80" height="80" as="geometry" />
        </mxCell>
        <mxCell id="84j811hHUZIT4I43hmBU-85" value="Conditional flow chart" style="text;html=1;align=center;verticalAlign=middle;resizable=0;points=[];autosize=1;strokeColor=none;fillColor=none;" vertex="1" parent="1">
          <mxGeometry x="490" y="1608" width="140" height="30" as="geometry" />
        </mxCell>
        <mxCell id="84j811hHUZIT4I43hmBU-86" value="Start" style="ellipse;whiteSpace=wrap;html=1;aspect=fixed;" vertex="1" parent="1">
          <mxGeometry x="310" y="1650" width="80" height="80" as="geometry" />
        </mxCell>
        <mxCell id="84j811hHUZIT4I43hmBU-87" value="i=1" style="shape=parallelogram;perimeter=parallelogramPerimeter;whiteSpace=wrap;html=1;fixedSize=1;" vertex="1" parent="1">
          <mxGeometry x="290" y="1760" width="120" height="60" as="geometry" />
        </mxCell>
        <mxCell id="84j811hHUZIT4I43hmBU-88" value="" style="endArrow=classic;html=1;rounded=0;" edge="1" parent="1" target="84j811hHUZIT4I43hmBU-87">
          <mxGeometry width="50" height="50" relative="1" as="geometry">
            <mxPoint x="350" y="1730" as="sourcePoint" />
            <mxPoint x="400" y="1680" as="targetPoint" />
          </mxGeometry>
        </mxCell>
        <mxCell id="84j811hHUZIT4I43hmBU-89" value="i&amp;lt;=10" style="rhombus;whiteSpace=wrap;html=1;" vertex="1" parent="1">
          <mxGeometry x="300" y="1850" width="80" height="80" as="geometry" />
        </mxCell>
        <mxCell id="84j811hHUZIT4I43hmBU-90" value="print i&amp;nbsp;&lt;div&gt;i++&lt;/div&gt;" style="rounded=0;whiteSpace=wrap;html=1;" vertex="1" parent="1">
          <mxGeometry x="290" y="1970" width="120" height="60" as="geometry" />
        </mxCell>
        <mxCell id="84j811hHUZIT4I43hmBU-91" value="" style="endArrow=classic;html=1;rounded=0;entryX=0.5;entryY=0;entryDx=0;entryDy=0;" edge="1" parent="1" target="84j811hHUZIT4I43hmBU-89">
          <mxGeometry width="50" height="50" relative="1" as="geometry">
            <mxPoint x="340" y="1820" as="sourcePoint" />
            <mxPoint x="390" y="1770" as="targetPoint" />
          </mxGeometry>
        </mxCell>
        <mxCell id="84j811hHUZIT4I43hmBU-92" value="" style="endArrow=classic;html=1;rounded=0;entryX=0.4;entryY=0.067;entryDx=0;entryDy=0;entryPerimeter=0;" edge="1" parent="1" target="84j811hHUZIT4I43hmBU-90">
          <mxGeometry width="50" height="50" relative="1" as="geometry">
            <mxPoint x="340" y="1930" as="sourcePoint" />
            <mxPoint x="390" y="1880" as="targetPoint" />
          </mxGeometry>
        </mxCell>
        <mxCell id="84j811hHUZIT4I43hmBU-97" value="true" style="edgeLabel;html=1;align=center;verticalAlign=middle;resizable=0;points=[];" vertex="1" connectable="0" parent="84j811hHUZIT4I43hmBU-92">
          <mxGeometry x="-0.4085" relative="1" as="geometry">
            <mxPoint as="offset" />
          </mxGeometry>
        </mxCell>
        <mxCell id="84j811hHUZIT4I43hmBU-93" value="" style="endArrow=classic;html=1;rounded=0;exitX=0;exitY=0.5;exitDx=0;exitDy=0;" edge="1" parent="1" source="84j811hHUZIT4I43hmBU-90">
          <mxGeometry width="50" height="50" relative="1" as="geometry">
            <mxPoint x="250" y="1940" as="sourcePoint" />
            <mxPoint x="300" y="1890" as="targetPoint" />
            <Array as="points">
              <mxPoint x="200" y="2000" />
              <mxPoint x="200" y="1890" />
            </Array>
          </mxGeometry>
        </mxCell>
        <mxCell id="84j811hHUZIT4I43hmBU-94" value="" style="endArrow=classic;html=1;rounded=0;entryX=1;entryY=0.5;entryDx=0;entryDy=0;" edge="1" parent="1" target="84j811hHUZIT4I43hmBU-95">
          <mxGeometry width="50" height="50" relative="1" as="geometry">
            <mxPoint x="380" y="1890" as="sourcePoint" />
            <mxPoint x="600" y="2050" as="targetPoint" />
            <Array as="points">
              <mxPoint x="600" y="1890" />
              <mxPoint x="590" y="2110" />
            </Array>
          </mxGeometry>
        </mxCell>
        <mxCell id="84j811hHUZIT4I43hmBU-96" value="false" style="edgeLabel;html=1;align=center;verticalAlign=middle;resizable=0;points=[];" vertex="1" connectable="0" parent="84j811hHUZIT4I43hmBU-94">
          <mxGeometry x="-0.6595" y="-1" relative="1" as="geometry">
            <mxPoint as="offset" />
          </mxGeometry>
        </mxCell>
        <mxCell id="84j811hHUZIT4I43hmBU-95" value="end" style="ellipse;whiteSpace=wrap;html=1;aspect=fixed;" vertex="1" parent="1">
          <mxGeometry x="310" y="2070" width="80" height="80" as="geometry" />
        </mxCell>
      </root>
    </mxGraphModel>
  </diagram>
</mxfile>
